<?xml version="1.0" standalone="no"?><svg xmlns:xlink="http://www.w3.org/1999/xlink" xmlns="http://www.w3.org/2000/svg" viewBox="0 0 2000 1400.0189901160347" preserveAspectRatio="xMaxYMax slice"><g transform="scale(2.6013857581933895)"><rect x="0" y="0" width="768.8314285714285" height="538.182" fill="#ffffff"/><rect x="0" y="0" width="76.88" height="76.88" fill="#1D1F21"/><rect x="0" y="0" width="76.88" height="76.88" fill="#1D1F21"/><rect x="76.88" y="0" width="76.88" height="76.88" fill="#1D1F21"/><path d="M 76.88 76.88 A 76.88 76.88 0 0 1  153.76 0 L 76.88 76.88 A 76.88 76.88 0 0 0 153.76 0" fill="#33b1ff"/><rect x="153.77" y="0" width="76.88" height="76.88" fill="#33b1ff"/><polygon points="153.77,0 230.65,0 230.65,76.88" fill="#33b1ff"/><rect x="230.6494285714286" y="0" width="76.88314285714286" height="76.88314285714286" fill="#ffffff"/><rect x="230.65" y="0" width="38.44" height="38.44" fill="#1D1F21"/><circle cx="249.87" cy="19.22" r="19.22" fill="#33b1ff"/><rect x="269.09" y="0" width="38.44" height="38.44" fill="#1D1F21"/><rect x="269.09" y="0" width="38.44" height="38.44" fill="#33b1ff"/><rect x="230.65" y="38.44" width="38.44" height="38.44" fill="#1D1F21"/><circle cx="249.87" cy="57.66" r="19.22" fill="#33b1ff"/><rect x="269.09" y="38.44" width="38.44" height="38.44" fill="#1D1F21"/><rect x="269.09" y="38.44" width="38.44" height="38.44" fill="#1D1F21"/><rect x="307.53" y="0" width="76.88" height="76.88" fill="#33b1ff"/><polygon points="307.53,0 384.40999999999997,0 384.40999999999997,76.88" fill="#33b1ff"/><rect x="384.42" y="0" width="76.88" height="76.88" fill="#33b1ff"/><rect x="384.42" y="0" width="76.88" height="76.88" fill="#33b1ff"/><rect x="461.3" y="0" width="76.88" height="76.88" fill="#1D1F21"/><polygon points="461.3,0 538.1800000000001,0 461.3,76.88" fill="#33b1ff"/><rect x="538.182" y="0" width="76.88314285714286" height="76.88314285714286" fill="#ffffff"/><rect x="538.18" y="0" width="38.44" height="38.44" fill="#1D1F21"/><polygon points="576.6199999999999,0 576.6199999999999,38.44 538.18,38.44" fill="#1D1F21"/><rect x="576.62" y="0" width="38.44" height="38.44" fill="#1D1F21"/><polygon points="576.62,0 615.06,38.44 576.62,38.44" fill="#33b1ff"/><rect x="538.18" y="38.44" width="38.44" height="38.44" fill="#33b1ff"/><polygon points="538.18,38.44 576.6199999999999,38.44 576.6199999999999,76.88" fill="#1D1F21"/><rect x="576.62" y="38.44" width="38.44" height="38.44" fill="#1D1F21"/><polygon points="576.62,38.44 615.06,38.44 576.62,76.88" fill="#1D1F21"/><rect x="615.0651428571429" y="0" width="76.88314285714286" height="76.88314285714286" fill="#ffffff"/><rect x="615.07" y="0" width="38.44" height="38.44" fill="#33b1ff"/><path d="M 615.07 38.44 A 38.44 38.44 0 0 0 653.51 0 L 615.07 0" fill="#1D1F21"/><rect x="653.51" y="0" width="38.44" height="38.44" fill="#1D1F21"/><path d="M 653.51 0 A 38.44 38.44 0 0 0 691.95 38.44 L 691.95 0" fill="#33b1ff"/><rect x="615.07" y="38.44" width="38.44" height="38.44" fill="#1D1F21"/><path d="M 615.07 38.44 A 38.44 38.44 0 0 1 653.51 76.88 L 615.07 76.88" fill="#33b1ff"/><rect x="653.51" y="38.44" width="38.44" height="38.44" fill="#33b1ff"/><path d="M 653.51 76.88 A 38.44 38.44 0 0 1  691.95 38.44 L 691.95 76.88" fill="#1D1F21"/><rect x="691.9482857142857" y="0" width="76.88314285714286" height="76.88314285714286" fill="#ffffff"/><rect x="691.95" y="0" width="38.44" height="38.44" fill="#33b1ff"/><path d="M 691.95 0 A 38.44 38.44 0 0 1 730.3900000000001 38.44 L 691.95 38.44" fill="#33b1ff"/><rect x="730.39" y="0" width="38.44" height="38.44" fill="#33b1ff"/><path d="M 730.39 38.44 A 38.44 38.44 0 0 1  768.8299999999999 0 L 768.8299999999999 38.44" fill="#1D1F21"/><rect x="691.95" y="38.44" width="38.44" height="38.44" fill="#1D1F21"/><path d="M 691.95 76.88 A 38.44 38.44 0 0 0 730.3900000000001 38.44 L 691.95 38.44" fill="#33b1ff"/><rect x="730.39" y="38.44" width="38.44" height="38.44" fill="#33b1ff"/><path d="M 730.39 38.44 A 38.44 38.44 0 0 0 768.8299999999999 76.88 L 768.8299999999999 38.44" fill="#1D1F21"/><rect x="0" y="76.88" width="76.88" height="76.88" fill="#33b1ff"/><rect x="0" y="76.88" width="76.88" height="76.88" fill="#1D1F21"/><rect x="76.88" y="76.88" width="76.88" height="76.88" fill="#1D1F21"/><polygon points="153.76,76.88 153.76,153.76 76.88,153.76" fill="#1D1F21"/><rect x="153.76628571428571" y="76.88314285714286" width="76.88314285714286" height="76.88314285714286" fill="#ffffff"/><rect x="153.77" y="76.88" width="38.44" height="38.44" fill="#33b1ff"/><path d="M 153.77 76.88 A 38.44 38.44 0 0 1 192.21 115.32 L 153.77 115.32" fill="#1D1F21"/><rect x="192.21" y="76.88" width="38.44" height="38.44" fill="#1D1F21"/><path d="M 192.21 115.32 A 38.44 38.44 0 0 1  230.65 76.88 L 230.65 115.32" fill="#33b1ff"/><rect x="153.77" y="115.32" width="38.44" height="38.44" fill="#1D1F21"/><path d="M 153.77 153.76 A 38.44 38.44 0 0 0 192.21 115.32 L 153.77 115.32" fill="#33b1ff"/><rect x="192.21" y="115.32" width="38.44" height="38.44" fill="#1D1F21"/><path d="M 192.21 115.32 A 38.44 38.44 0 0 0 230.65 153.76 L 230.65 115.32" fill="#33b1ff"/><rect x="230.6494285714286" y="76.88314285714286" width="76.88314285714286" height="76.88314285714286" fill="#ffffff"/><rect x="230.65" y="76.88" width="38.44" height="38.44" fill="#1D1F21"/><circle cx="249.87" cy="96.1" r="19.22" fill="#1D1F21"/><rect x="269.09" y="76.88" width="38.44" height="38.44" fill="#1D1F21"/><rect x="269.09" y="76.88" width="38.44" height="38.44" fill="#33b1ff"/><rect x="230.65" y="115.32" width="38.44" height="38.44" fill="#1D1F21"/><circle cx="249.87" cy="134.54" r="19.22" fill="#33b1ff"/><rect x="269.09" y="115.32" width="38.44" height="38.44" fill="#33b1ff"/><rect x="269.09" y="115.32" width="38.44" height="38.44" fill="#1D1F21"/><rect x="307.53257142857143" y="76.88314285714286" width="76.88314285714286" height="76.88314285714286" fill="#ffffff"/><rect x="307.53" y="76.88" width="38.44" height="38.44" fill="#1D1F21"/><polygon points="345.96999999999997,76.88 345.96999999999997,115.32 307.53,115.32" fill="#33b1ff"/><rect x="345.97" y="76.88" width="38.44" height="38.44" fill="#1D1F21"/><polygon points="345.97,76.88 384.41,115.32 345.97,115.32" fill="#1D1F21"/><rect x="307.53" y="115.32" width="38.44" height="38.44" fill="#33b1ff"/><polygon points="307.53,115.32 345.96999999999997,115.32 307.53,153.76" fill="#33b1ff"/><rect x="345.97" y="115.32" width="38.44" height="38.44" fill="#1D1F21"/><polygon points="345.97,115.32 384.41,115.32 384.41,153.76" fill="#1D1F21"/><rect x="384.42" y="76.88" width="76.88" height="76.88" fill="#33b1ff"/><rect x="384.42" y="76.88" width="76.88" height="76.88" fill="#33b1ff"/><rect x="461.2988571428572" y="76.88314285714286" width="76.88314285714286" height="76.88314285714286" fill="#ffffff"/><rect x="461.3" y="76.88" width="38.44" height="38.44" fill="#33b1ff"/><polygon points="499.74,76.88 499.74,115.32 461.3,115.32" fill="#33b1ff"/><rect x="499.74" y="76.88" width="38.44" height="38.44" fill="#33b1ff"/><polygon points="499.74,76.88 538.1800000000001,115.32 499.74,115.32" fill="#1D1F21"/><rect x="461.3" y="115.32" width="38.44" height="38.44" fill="#1D1F21"/><polygon points="461.3,115.32 499.74,115.32 461.3,153.76" fill="#33b1ff"/><rect x="499.74" y="115.32" width="38.44" height="38.44" fill="#1D1F21"/><polygon points="499.74,115.32 538.1800000000001,115.32 538.1800000000001,153.76" fill="#33b1ff"/><rect x="538.182" y="76.88314285714286" width="76.88314285714286" height="76.88314285714286" fill="#ffffff"/><rect x="538.18" y="76.88" width="38.44" height="38.44" fill="#1D1F21"/><polygon points="576.6199999999999,76.88 576.6199999999999,115.32 538.18,115.32" fill="#33b1ff"/><rect x="576.62" y="76.88" width="38.44" height="38.44" fill="#1D1F21"/><polygon points="576.62,76.88 615.06,115.32 576.62,115.32" fill="#1D1F21"/><rect x="538.18" y="115.32" width="38.44" height="38.44" fill="#33b1ff"/><polygon points="538.18,115.32 576.6199999999999,115.32 576.6199999999999,153.76" fill="#1D1F21"/><rect x="576.62" y="115.32" width="38.44" height="38.44" fill="#1D1F21"/><polygon points="576.62,115.32 615.06,115.32 576.62,153.76" fill="#33b1ff"/><rect x="615.0651428571429" y="76.88314285714286" width="76.88314285714286" height="76.88314285714286" fill="#ffffff"/><rect x="615.07" y="76.88" width="38.44" height="38.44" fill="#1D1F21"/><path d="M 615.07 76.88 A 38.44 38.44 0 0 0 653.51 115.32 L 653.51 76.88" fill="#1D1F21"/><rect x="653.51" y="76.88" width="38.44" height="38.44" fill="#1D1F21"/><path d="M 653.51 115.32 A 38.44 38.44 0 0 0 691.95 76.88 L 653.51 76.88" fill="#1D1F21"/><rect x="615.07" y="115.32" width="38.44" height="38.44" fill="#1D1F21"/><path d="M 615.07 153.76 A 38.44 38.44 0 0 1  653.51 115.32 L 653.51 153.76" fill="#1D1F21"/><rect x="653.51" y="115.32" width="38.44" height="38.44" fill="#33b1ff"/><path d="M 653.51 115.32 A 38.44 38.44 0 0 1 691.95 153.76 L 653.51 153.76" fill="#33b1ff"/><rect x="691.9482857142857" y="76.88314285714286" width="76.88314285714286" height="76.88314285714286" fill="#ffffff"/><rect x="691.95" y="76.88" width="38.44" height="38.44" fill="#1D1F21"/><path d="M 691.95 76.88 A 38.44 38.44 0 0 0 730.3900000000001 115.32 L 730.3900000000001 76.88" fill="#1D1F21"/><rect x="730.39" y="76.88" width="38.44" height="38.44" fill="#33b1ff"/><path d="M 730.39 115.32 A 38.44 38.44 0 0 0 768.8299999999999 76.88 L 730.39 76.88" fill="#1D1F21"/><rect x="691.95" y="115.32" width="38.44" height="38.44" fill="#1D1F21"/><path d="M 691.95 153.76 A 38.44 38.44 0 0 1  730.3900000000001 115.32 L 730.3900000000001 153.76" fill="#1D1F21"/><rect x="730.39" y="115.32" width="38.44" height="38.44" fill="#1D1F21"/><path d="M 730.39 115.32 A 38.44 38.44 0 0 1 768.8299999999999 153.76 L 730.39 153.76" fill="#1D1F21"/><rect x="0" y="153.76628571428571" width="76.88314285714286" height="76.88314285714286" fill="#ffffff"/><rect x="0" y="153.77" width="38.44" height="38.44" fill="#1D1F21"/><path d="M 0 192.21 A 38.44 38.44 0 0 1  38.44 153.77 L 38.44 192.21" fill="#33b1ff"/><rect x="38.44" y="153.77" width="38.44" height="38.44" fill="#33b1ff"/><path d="M 38.44 153.77 A 38.44 38.44 0 0 1 76.88 192.21 L 38.44 192.21" fill="#1D1F21"/><rect x="0" y="192.21" width="38.44" height="38.44" fill="#1D1F21"/><path d="M 0 192.21 A 38.44 38.44 0 0 0 38.44 230.65 L 38.44 192.21" fill="#1D1F21"/><rect x="38.44" y="192.21" width="38.44" height="38.44" fill="#33b1ff"/><path d="M 38.44 230.65 A 38.44 38.44 0 0 0 76.88 192.21 L 38.44 192.21" fill="#1D1F21"/><rect x="76.88314285714286" y="153.76628571428571" width="76.88314285714286" height="76.88314285714286" fill="#ffffff"/><rect x="76.88" y="153.77" width="38.44" height="38.44" fill="#33b1ff"/><path d="M 76.88 192.21 A 38.44 38.44 0 0 0 115.32 153.77 L 76.88 153.77" fill="#33b1ff"/><rect x="115.32" y="153.77" width="38.44" height="38.44" fill="#33b1ff"/><path d="M 115.32 153.77 A 38.44 38.44 0 0 0 153.76 192.21 L 153.76 153.77" fill="#33b1ff"/><rect x="76.88" y="192.21" width="38.44" height="38.44" fill="#1D1F21"/><path d="M 76.88 192.21 A 38.44 38.44 0 0 1 115.32 230.65 L 76.88 230.65" fill="#33b1ff"/><rect x="115.32" y="192.21" width="38.44" height="38.44" fill="#1D1F21"/><path d="M 115.32 230.65 A 38.44 38.44 0 0 1  153.76 192.21 L 153.76 230.65" fill="#33b1ff"/><rect x="153.77" y="153.77" width="76.88" height="76.88" fill="#1D1F21"/><path d="M 153.77 230.65 A 76.88 76.88 0 0 1  230.65 153.77 L 153.77 230.65 A 76.88 76.88 0 0 0 230.65 153.77" fill="#33b1ff"/><rect x="230.65" y="153.77" width="76.88" height="76.88" fill="#33b1ff"/><polygon points="230.65,153.77 307.53,230.65 230.65,230.65" fill="#1D1F21"/><rect x="307.53" y="153.77" width="76.88" height="76.88" fill="#33b1ff"/><rect x="307.53" y="153.77" width="76.88" height="76.88" fill="#1D1F21"/><rect x="384.4157142857143" y="153.76628571428571" width="76.88314285714286" height="76.88314285714286" fill="#ffffff"/><rect x="384.42" y="153.77" width="38.44" height="38.44" fill="#33b1ff"/><path d="M 384.42 153.77 A 38.44 38.44 0 0 0 422.86 192.21 L 422.86 153.77" fill="#1D1F21"/><rect x="422.86" y="153.77" width="38.44" height="38.44" fill="#1D1F21"/><path d="M 422.86 192.21 A 38.44 38.44 0 0 0 461.3 153.77 L 422.86 153.77" fill="#1D1F21"/><rect x="384.42" y="192.21" width="38.44" height="38.44" fill="#1D1F21"/><path d="M 384.42 230.65 A 38.44 38.44 0 0 1  422.86 192.21 L 422.86 230.65" fill="#1D1F21"/><rect x="422.86" y="192.21" width="38.44" height="38.44" fill="#33b1ff"/><path d="M 422.86 192.21 A 38.44 38.44 0 0 1 461.3 230.65 L 422.86 230.65" fill="#33b1ff"/><rect x="461.2988571428572" y="153.76628571428571" width="76.88314285714286" height="76.88314285714286" fill="#ffffff"/><rect x="461.3" y="153.77" width="38.44" height="38.44" fill="#1D1F21"/><path d="M 461.3 192.21 A 38.44 38.44 0 0 1 499.74 153.77 L 499.74 163.38 A 28.83 28.83 0 0 0 470.91 192.21" fill="#33b1ff"/><rect x="499.74" y="153.77" width="38.44" height="38.44" fill="#33b1ff"/><path d="M 499.74 153.77 A 38.44 38.44 0 0 1 538.1800000000001 192.21 L 528.57 192.21 A 28.83 28.83 0 0 0 499.74 163.38" fill="#33b1ff"/><rect x="461.3" y="192.21" width="38.44" height="38.44" fill="#1D1F21"/><path d="M 461.3 192.21 A 38.44 38.44 0 0 0 499.74 230.65 L 499.74 221.04000000000002 A 28.83 28.83 0 0 1 470.91 192.21" fill="#33b1ff"/><rect x="499.74" y="192.21" width="38.44" height="38.44" fill="#33b1ff"/><path d="M 499.74 230.65 A 38.44 38.44 0 0 0 538.1800000000001 192.21 L 528.57 192.21 A 28.83 28.83 0 0 1 499.74 221.04000000000002" fill="#33b1ff"/><rect x="538.182" y="153.76628571428571" width="76.88314285714286" height="76.88314285714286" fill="#ffffff"/><rect x="538.18" y="153.77" width="38.44" height="38.44" fill="#33b1ff"/><path d="M 538.18 153.77 A 38.44 38.44 0 0 0 576.6199999999999 192.21 L 576.6199999999999 153.77" fill="#1D1F21"/><rect x="576.62" y="153.77" width="38.44" height="38.44" fill="#1D1F21"/><path d="M 576.62 192.21 A 38.44 38.44 0 0 0 615.06 153.77 L 576.62 153.77" fill="#1D1F21"/><rect x="538.18" y="192.21" width="38.44" height="38.44" fill="#33b1ff"/><path d="M 538.18 230.65 A 38.44 38.44 0 0 1  576.6199999999999 192.21 L 576.6199999999999 230.65" fill="#33b1ff"/><rect x="576.62" y="192.21" width="38.44" height="38.44" fill="#33b1ff"/><path d="M 576.62 192.21 A 38.44 38.44 0 0 1 615.06 230.65 L 576.62 230.65" fill="#1D1F21"/><rect x="615.07" y="153.77" width="76.88" height="76.88" fill="#33b1ff"/><path d="M 615.07 153.77 A 76.88 76.88 0 0 1  691.95 230.65 L 615.07 153.77 A 76.88 76.88 0 0 0 691.95 230.65" fill="#1D1F21"/><rect x="691.9482857142857" y="153.76628571428571" width="76.88314285714286" height="76.88314285714286" fill="#ffffff"/><rect x="691.95" y="153.77" width="38.44" height="38.44" fill="#33b1ff"/><circle cx="711.1700000000001" cy="172.99" r="19.22" fill="#1D1F21"/><rect x="730.39" y="153.77" width="38.44" height="38.44" fill="#33b1ff"/><rect x="730.39" y="153.77" width="38.44" height="38.44" fill="#1D1F21"/><rect x="691.95" y="192.21" width="38.44" height="38.44" fill="#33b1ff"/><circle cx="711.1700000000001" cy="211.43" r="19.22" fill="#1D1F21"/><rect x="730.39" y="192.21" width="38.44" height="38.44" fill="#33b1ff"/><rect x="730.39" y="192.21" width="38.44" height="38.44" fill="#1D1F21"/><rect x="0" y="230.65" width="76.88" height="76.88" fill="#33b1ff"/><polygon points="76.88,230.65 76.88,307.53 0,307.53" fill="#1D1F21"/><rect x="76.88314285714286" y="230.6494285714286" width="76.88314285714286" height="76.88314285714286" fill="#ffffff"/><rect x="76.88" y="230.65" width="38.44" height="38.44" fill="#1D1F21"/><polygon points="115.32,230.65 115.32,269.09000000000003 76.88,269.09000000000003" fill="#33b1ff"/><rect x="115.32" y="230.65" width="38.44" height="38.44" fill="#33b1ff"/><polygon points="115.32,230.65 153.76,230.65 115.32,269.09000000000003" fill="#1D1F21"/><rect x="76.88" y="269.09" width="38.44" height="38.44" fill="#33b1ff"/><polygon points="76.88,269.09 115.32,269.09 115.32,307.53" fill="#33b1ff"/><rect x="115.32" y="269.09" width="38.44" height="38.44" fill="#1D1F21"/><polygon points="115.32,269.09 153.76,307.53 115.32,307.53" fill="#1D1F21"/><rect x="153.76628571428571" y="230.6494285714286" width="76.88314285714286" height="76.88314285714286" fill="#ffffff"/><rect x="153.77" y="230.65" width="38.44" height="38.44" fill="#1D1F21"/><path d="M 153.77 269.09000000000003 A 38.44 38.44 0 0 1 192.21 230.65 L 192.21 240.26 A 28.83 28.83 0 0 0 163.38 269.09000000000003" fill="#1D1F21"/><rect x="192.21" y="230.65" width="38.44" height="38.44" fill="#1D1F21"/><path d="M 192.21 230.65 A 38.44 38.44 0 0 1 230.65 269.09000000000003 L 221.04000000000002 269.09000000000003 A 28.83 28.83 0 0 0 192.21 240.26" fill="#33b1ff"/><rect x="153.77" y="269.09" width="38.44" height="38.44" fill="#1D1F21"/><path d="M 153.77 269.09 A 38.44 38.44 0 0 0 192.21 307.53 L 192.21 297.91999999999996 A 28.83 28.83 0 0 1 163.38 269.09" fill="#33b1ff"/><rect x="192.21" y="269.09" width="38.44" height="38.44" fill="#1D1F21"/><path d="M 192.21 307.53 A 38.44 38.44 0 0 0 230.65 269.09 L 221.04000000000002 269.09 A 28.83 28.83 0 0 1 192.21 297.91999999999996" fill="#1D1F21"/><rect x="230.6494285714286" y="230.6494285714286" width="76.88314285714286" height="76.88314285714286" fill="#ffffff"/><rect x="230.65" y="230.65" width="38.44" height="38.44" fill="#33b1ff"/><circle cx="249.87" cy="249.87" r="19.22" fill="#33b1ff"/><rect x="269.09" y="230.65" width="38.44" height="38.44" fill="#33b1ff"/><rect x="269.09" y="230.65" width="38.44" height="38.44" fill="#1D1F21"/><rect x="230.65" y="269.09" width="38.44" height="38.44" fill="#1D1F21"/><circle cx="249.87" cy="288.30999999999995" r="19.22" fill="#33b1ff"/><rect x="269.09" y="269.09" width="38.44" height="38.44" fill="#1D1F21"/><rect x="269.09" y="269.09" width="38.44" height="38.44" fill="#33b1ff"/><rect x="307.53" y="230.65" width="76.88" height="76.88" fill="#33b1ff"/><path d="M 307.53 230.65 A 76.88 76.88 0 0 1  384.40999999999997 307.53 L 307.53 230.65 A 76.88 76.88 0 0 0 384.40999999999997 307.53" fill="#1D1F21"/><rect x="384.42" y="230.65" width="76.88" height="76.88" fill="#1D1F21"/><path d="M 384.42 307.53 A 76.88 76.88 0 0 0 461.3 230.65 L 384.42 230.65" fill="#1D1F21"/><rect x="461.3" y="230.65" width="76.88" height="76.88" fill="#1D1F21"/><rect x="461.3" y="230.65" width="76.88" height="76.88" fill="#1D1F21"/><rect x="538.182" y="230.6494285714286" width="76.88314285714286" height="76.88314285714286" fill="#ffffff"/><rect x="538.18" y="230.65" width="38.44" height="38.44" fill="#33b1ff"/><circle cx="557.4" cy="249.87" r="19.22" fill="#33b1ff"/><rect x="576.62" y="230.65" width="38.44" height="38.44" fill="#33b1ff"/><rect x="576.62" y="230.65" width="38.44" height="38.44" fill="#33b1ff"/><rect x="538.18" y="269.09" width="38.44" height="38.44" fill="#1D1F21"/><circle cx="557.4" cy="288.30999999999995" r="19.22" fill="#33b1ff"/><rect x="576.62" y="269.09" width="38.44" height="38.44" fill="#1D1F21"/><rect x="576.62" y="269.09" width="38.44" height="38.44" fill="#33b1ff"/><rect x="615.0651428571429" y="230.6494285714286" width="76.88314285714286" height="76.88314285714286" fill="#ffffff"/><rect x="615.07" y="230.65" width="38.44" height="38.44" fill="#1D1F21"/><path d="M 615.07 230.65 A 38.44 38.44 0 0 0 653.51 269.09000000000003 L 653.51 230.65" fill="#1D1F21"/><rect x="653.51" y="230.65" width="38.44" height="38.44" fill="#1D1F21"/><path d="M 653.51 269.09000000000003 A 38.44 38.44 0 0 0 691.95 230.65 L 653.51 230.65" fill="#1D1F21"/><rect x="615.07" y="269.09" width="38.44" height="38.44" fill="#1D1F21"/><path d="M 615.07 307.53 A 38.44 38.44 0 0 1  653.51 269.09 L 653.51 307.53" fill="#33b1ff"/><rect x="653.51" y="269.09" width="38.44" height="38.44" fill="#1D1F21"/><path d="M 653.51 269.09 A 38.44 38.44 0 0 1 691.95 307.53 L 653.51 307.53" fill="#33b1ff"/><rect x="691.95" y="230.65" width="76.88" height="76.88" fill="#1D1F21"/><polygon points="691.95,230.65 768.83,230.65 691.95,307.53" fill="#1D1F21"/><rect x="0" y="307.53" width="76.88" height="76.88" fill="#1D1F21"/><path d="M 0 384.40999999999997 A 76.88 76.88 0 0 1  76.88 307.53 L 76.88 384.40999999999997" fill="#1D1F21"/><rect x="76.88" y="307.53" width="76.88" height="76.88" fill="#33b1ff"/><path d="M 76.88 384.40999999999997 A 76.88 76.88 0 0 0 153.76 307.53 L 76.88 307.53" fill="#1D1F21"/><rect x="153.76628571428571" y="307.53257142857143" width="76.88314285714286" height="76.88314285714286" fill="#ffffff"/><rect x="153.77" y="307.53" width="38.44" height="38.44" fill="#33b1ff"/><path d="M 153.77 345.96999999999997 A 38.44 38.44 0 0 0 192.21 307.53 L 153.77 307.53" fill="#1D1F21"/><rect x="192.21" y="307.53" width="38.44" height="38.44" fill="#33b1ff"/><path d="M 192.21 307.53 A 38.44 38.44 0 0 0 230.65 345.96999999999997 L 230.65 307.53" fill="#33b1ff"/><rect x="153.77" y="345.97" width="38.44" height="38.44" fill="#1D1F21"/><path d="M 153.77 345.97 A 38.44 38.44 0 0 1 192.21 384.41 L 153.77 384.41" fill="#1D1F21"/><rect x="192.21" y="345.97" width="38.44" height="38.44" fill="#1D1F21"/><path d="M 192.21 384.41 A 38.44 38.44 0 0 1  230.65 345.97 L 230.65 384.41" fill="#33b1ff"/><rect x="230.65" y="307.53" width="76.88" height="76.88" fill="#1D1F21"/><rect x="230.65" y="307.53" width="76.88" height="76.88" fill="#1D1F21"/><rect x="307.53257142857143" y="307.53257142857143" width="76.88314285714286" height="76.88314285714286" fill="#ffffff"/><rect x="307.53" y="307.53" width="38.44" height="38.44" fill="#1D1F21"/><polygon points="345.96999999999997,307.53 345.96999999999997,345.96999999999997 307.53,345.96999999999997" fill="#1D1F21"/><rect x="345.97" y="307.53" width="38.44" height="38.44" fill="#1D1F21"/><polygon points="345.97,307.53 384.41,345.96999999999997 345.97,345.96999999999997" fill="#1D1F21"/><rect x="307.53" y="345.97" width="38.44" height="38.44" fill="#1D1F21"/><polygon points="307.53,345.97 345.96999999999997,345.97 307.53,384.41" fill="#33b1ff"/><rect x="345.97" y="345.97" width="38.44" height="38.44" fill="#1D1F21"/><polygon points="345.97,345.97 384.41,345.97 384.41,384.41" fill="#1D1F21"/><rect x="384.4157142857143" y="307.53257142857143" width="76.88314285714286" height="76.88314285714286" fill="#ffffff"/><rect x="384.42" y="307.53" width="38.44" height="38.44" fill="#1D1F21"/><path d="M 384.42 345.96999999999997 A 38.44 38.44 0 0 1  422.86 307.53 L 422.86 345.96999999999997" fill="#1D1F21"/><rect x="422.86" y="307.53" width="38.44" height="38.44" fill="#1D1F21"/><path d="M 422.86 307.53 A 38.44 38.44 0 0 1 461.3 345.96999999999997 L 422.86 345.96999999999997" fill="#33b1ff"/><rect x="384.42" y="345.97" width="38.44" height="38.44" fill="#1D1F21"/><path d="M 384.42 345.97 A 38.44 38.44 0 0 0 422.86 384.41 L 422.86 345.97" fill="#1D1F21"/><rect x="422.86" y="345.97" width="38.44" height="38.44" fill="#1D1F21"/><path d="M 422.86 384.41 A 38.44 38.44 0 0 0 461.3 345.97 L 422.86 345.97" fill="#1D1F21"/><rect x="461.3" y="307.53" width="76.88" height="76.88" fill="#33b1ff"/><polygon points="538.1800000000001,307.53 538.1800000000001,384.40999999999997 461.3,384.40999999999997" fill="#33b1ff"/><rect x="538.18" y="307.53" width="76.88" height="76.88" fill="#1D1F21"/><polygon points="538.18,307.53 615.06,307.53 615.06,384.40999999999997" fill="#33b1ff"/><rect x="615.07" y="307.53" width="76.88" height="76.88" fill="#1D1F21"/><path d="M 615.07 307.53 A 76.88 76.88 0 0 1 691.95 384.40999999999997 L 615.07 384.40999999999997" fill="#33b1ff"/><rect x="691.95" y="307.53" width="76.88" height="76.88" fill="#33b1ff"/><polygon points="768.83,307.53 768.83,384.40999999999997 691.95,384.40999999999997" fill="#1D1F21"/><rect x="0" y="384.4157142857143" width="76.88314285714286" height="76.88314285714286" fill="#ffffff"/><rect x="0" y="384.42" width="38.44" height="38.44" fill="#1D1F21"/><path d="M 0 384.42 A 38.44 38.44 0 0 1 38.44 422.86 L 0 422.86" fill="#1D1F21"/><rect x="38.44" y="384.42" width="38.44" height="38.44" fill="#1D1F21"/><path d="M 38.44 422.86 A 38.44 38.44 0 0 1  76.88 384.42 L 76.88 422.86" fill="#33b1ff"/><rect x="0" y="422.86" width="38.44" height="38.44" fill="#33b1ff"/><path d="M 0 461.3 A 38.44 38.44 0 0 0 38.44 422.86 L 0 422.86" fill="#33b1ff"/><rect x="38.44" y="422.86" width="38.44" height="38.44" fill="#33b1ff"/><path d="M 38.44 422.86 A 38.44 38.44 0 0 0 76.88 461.3 L 76.88 422.86" fill="#1D1F21"/><rect x="76.88" y="384.42" width="76.88" height="76.88" fill="#1D1F21"/><polygon points="76.88,384.42 153.76,384.42 153.76,461.3" fill="#1D1F21"/><rect x="153.76628571428571" y="384.4157142857143" width="76.88314285714286" height="76.88314285714286" fill="#ffffff"/><rect x="153.77" y="384.42" width="38.44" height="38.44" fill="#33b1ff"/><path d="M 153.77 422.86 A 38.44 38.44 0 0 1  192.21 384.42 L 192.21 422.86" fill="#33b1ff"/><rect x="192.21" y="384.42" width="38.44" height="38.44" fill="#1D1F21"/><path d="M 192.21 384.42 A 38.44 38.44 0 0 1 230.65 422.86 L 192.21 422.86" fill="#33b1ff"/><rect x="153.77" y="422.86" width="38.44" height="38.44" fill="#33b1ff"/><path d="M 153.77 422.86 A 38.44 38.44 0 0 0 192.21 461.3 L 192.21 422.86" fill="#1D1F21"/><rect x="192.21" y="422.86" width="38.44" height="38.44" fill="#33b1ff"/><path d="M 192.21 461.3 A 38.44 38.44 0 0 0 230.65 422.86 L 192.21 422.86" fill="#33b1ff"/><rect x="230.6494285714286" y="384.4157142857143" width="76.88314285714286" height="76.88314285714286" fill="#ffffff"/><rect x="230.65" y="384.42" width="38.44" height="38.44" fill="#1D1F21"/><path d="M 230.65 422.86 A 38.44 38.44 0 0 0 269.09000000000003 384.42 L 230.65 384.42" fill="#33b1ff"/><rect x="269.09" y="384.42" width="38.44" height="38.44" fill="#33b1ff"/><path d="M 269.09 384.42 A 38.44 38.44 0 0 0 307.53 422.86 L 307.53 384.42" fill="#33b1ff"/><rect x="230.65" y="422.86" width="38.44" height="38.44" fill="#1D1F21"/><path d="M 230.65 422.86 A 38.44 38.44 0 0 1 269.09000000000003 461.3 L 230.65 461.3" fill="#1D1F21"/><rect x="269.09" y="422.86" width="38.44" height="38.44" fill="#33b1ff"/><path d="M 269.09 461.3 A 38.44 38.44 0 0 1  307.53 422.86 L 307.53 461.3" fill="#1D1F21"/><rect x="307.53257142857143" y="384.4157142857143" width="76.88314285714286" height="76.88314285714286" fill="#ffffff"/><rect x="307.53" y="384.42" width="38.44" height="38.44" fill="#33b1ff"/><path d="M 307.53 422.86 A 38.44 38.44 0 0 1  345.96999999999997 384.42 L 345.96999999999997 422.86" fill="#1D1F21"/><rect x="345.97" y="384.42" width="38.44" height="38.44" fill="#33b1ff"/><path d="M 345.97 384.42 A 38.44 38.44 0 0 1 384.41 422.86 L 345.97 422.86" fill="#1D1F21"/><rect x="307.53" y="422.86" width="38.44" height="38.44" fill="#33b1ff"/><path d="M 307.53 422.86 A 38.44 38.44 0 0 0 345.96999999999997 461.3 L 345.96999999999997 422.86" fill="#1D1F21"/><rect x="345.97" y="422.86" width="38.44" height="38.44" fill="#1D1F21"/><path d="M 345.97 461.3 A 38.44 38.44 0 0 0 384.41 422.86 L 345.97 422.86" fill="#1D1F21"/><rect x="384.4157142857143" y="384.4157142857143" width="76.88314285714286" height="76.88314285714286" fill="#ffffff"/><rect x="384.42" y="384.42" width="38.44" height="38.44" fill="#33b1ff"/><path d="M 384.42 384.42 A 38.44 38.44 0 0 1 422.86 422.86 L 384.42 422.86" fill="#1D1F21"/><rect x="422.86" y="384.42" width="38.44" height="38.44" fill="#33b1ff"/><path d="M 422.86 422.86 A 38.44 38.44 0 0 1  461.3 384.42 L 461.3 422.86" fill="#33b1ff"/><rect x="384.42" y="422.86" width="38.44" height="38.44" fill="#33b1ff"/><path d="M 384.42 461.3 A 38.44 38.44 0 0 0 422.86 422.86 L 384.42 422.86" fill="#1D1F21"/><rect x="422.86" y="422.86" width="38.44" height="38.44" fill="#33b1ff"/><path d="M 422.86 422.86 A 38.44 38.44 0 0 0 461.3 461.3 L 461.3 422.86" fill="#33b1ff"/><rect x="461.2988571428572" y="384.4157142857143" width="76.88314285714286" height="76.88314285714286" fill="#ffffff"/><rect x="461.3" y="384.42" width="38.44" height="38.44" fill="#33b1ff"/><polygon points="499.74,384.42 499.74,422.86 461.3,422.86" fill="#33b1ff"/><rect x="499.74" y="384.42" width="38.44" height="38.44" fill="#33b1ff"/><polygon points="499.74,384.42 538.1800000000001,422.86 499.74,422.86" fill="#33b1ff"/><rect x="461.3" y="422.86" width="38.44" height="38.44" fill="#1D1F21"/><polygon points="461.3,422.86 499.74,422.86 461.3,461.3" fill="#1D1F21"/><rect x="499.74" y="422.86" width="38.44" height="38.44" fill="#33b1ff"/><polygon points="499.74,422.86 538.1800000000001,422.86 538.1800000000001,461.3" fill="#1D1F21"/><rect x="538.18" y="384.42" width="76.88" height="76.88" fill="#1D1F21"/><polygon points="538.18,384.42 615.06,384.42 615.06,461.3" fill="#33b1ff"/><rect x="615.07" y="384.42" width="76.88" height="76.88" fill="#33b1ff"/><path d="M 615.07 461.3 A 76.88 76.88 0 0 1  691.95 384.42 L 691.95 461.3" fill="#33b1ff"/><rect x="691.9482857142857" y="384.4157142857143" width="76.88314285714286" height="76.88314285714286" fill="#ffffff"/><rect x="691.95" y="384.42" width="38.44" height="38.44" fill="#1D1F21"/><polygon points="730.3900000000001,384.42 730.3900000000001,422.86 691.95,422.86" fill="#33b1ff"/><rect x="730.39" y="384.42" width="38.44" height="38.44" fill="#33b1ff"/><polygon points="730.39,384.42 768.8299999999999,384.42 730.39,422.86" fill="#1D1F21"/><rect x="691.95" y="422.86" width="38.44" height="38.44" fill="#1D1F21"/><polygon points="691.95,422.86 730.3900000000001,422.86 730.3900000000001,461.3" fill="#33b1ff"/><rect x="730.39" y="422.86" width="38.44" height="38.44" fill="#33b1ff"/><polygon points="730.39,422.86 768.8299999999999,461.3 730.39,461.3" fill="#33b1ff"/><rect x="0" y="461.3" width="76.88" height="76.88" fill="#1D1F21"/><polygon points="76.88,461.3 76.88,538.1800000000001 0,538.1800000000001" fill="#33b1ff"/><rect x="76.88314285714286" y="461.2988571428572" width="76.88314285714286" height="76.88314285714286" fill="#ffffff"/><rect x="76.88" y="461.3" width="38.44" height="38.44" fill="#33b1ff"/><path d="M 76.88 499.74 A 38.44 38.44 0 0 1  115.32 461.3 L 115.32 499.74" fill="#1D1F21"/><rect x="115.32" y="461.3" width="38.44" height="38.44" fill="#1D1F21"/><path d="M 115.32 461.3 A 38.44 38.44 0 0 1 153.76 499.74 L 115.32 499.74" fill="#1D1F21"/><rect x="76.88" y="499.74" width="38.44" height="38.44" fill="#33b1ff"/><path d="M 76.88 499.74 A 38.44 38.44 0 0 0 115.32 538.1800000000001 L 115.32 499.74" fill="#1D1F21"/><rect x="115.32" y="499.74" width="38.44" height="38.44" fill="#1D1F21"/><path d="M 115.32 538.1800000000001 A 38.44 38.44 0 0 0 153.76 499.74 L 115.32 499.74" fill="#1D1F21"/><rect x="153.76628571428571" y="461.2988571428572" width="76.88314285714286" height="76.88314285714286" fill="#ffffff"/><rect x="153.77" y="461.3" width="38.44" height="38.44" fill="#33b1ff"/><path d="M 153.77 461.3 A 38.44 38.44 0 0 1 192.21 499.74 L 153.77 499.74" fill="#1D1F21"/><rect x="192.21" y="461.3" width="38.44" height="38.44" fill="#1D1F21"/><path d="M 192.21 499.74 A 38.44 38.44 0 0 1  230.65 461.3 L 230.65 499.74" fill="#1D1F21"/><rect x="153.77" y="499.74" width="38.44" height="38.44" fill="#1D1F21"/><path d="M 153.77 538.1800000000001 A 38.44 38.44 0 0 0 192.21 499.74 L 153.77 499.74" fill="#1D1F21"/><rect x="192.21" y="499.74" width="38.44" height="38.44" fill="#33b1ff"/><path d="M 192.21 499.74 A 38.44 38.44 0 0 0 230.65 538.1800000000001 L 230.65 499.74" fill="#1D1F21"/><rect x="230.6494285714286" y="461.2988571428572" width="76.88314285714286" height="76.88314285714286" fill="#ffffff"/><rect x="230.65" y="461.3" width="38.44" height="38.44" fill="#33b1ff"/><path d="M 230.65 461.3 A 38.44 38.44 0 0 1 269.09000000000003 499.74 L 230.65 499.74" fill="#33b1ff"/><rect x="269.09" y="461.3" width="38.44" height="38.44" fill="#33b1ff"/><path d="M 269.09 499.74 A 38.44 38.44 0 0 1  307.53 461.3 L 307.53 499.74" fill="#1D1F21"/><rect x="230.65" y="499.74" width="38.44" height="38.44" fill="#1D1F21"/><path d="M 230.65 538.1800000000001 A 38.44 38.44 0 0 0 269.09000000000003 499.74 L 230.65 499.74" fill="#33b1ff"/><rect x="269.09" y="499.74" width="38.44" height="38.44" fill="#1D1F21"/><path d="M 269.09 499.74 A 38.44 38.44 0 0 0 307.53 538.1800000000001 L 307.53 499.74" fill="#1D1F21"/><rect x="307.53" y="461.3" width="76.88" height="76.88" fill="#1D1F21"/><polygon points="307.53,461.3 384.40999999999997,538.1800000000001 307.53,538.1800000000001" fill="#1D1F21"/><rect x="384.4157142857143" y="461.2988571428572" width="76.88314285714286" height="76.88314285714286" fill="#ffffff"/><rect x="384.42" y="461.3" width="38.44" height="38.44" fill="#33b1ff"/><path d="M 384.42 461.3 A 38.44 38.44 0 0 1 422.86 499.74 L 384.42 499.74" fill="#1D1F21"/><rect x="422.86" y="461.3" width="38.44" height="38.44" fill="#1D1F21"/><path d="M 422.86 499.74 A 38.44 38.44 0 0 1  461.3 461.3 L 461.3 499.74" fill="#1D1F21"/><rect x="384.42" y="499.74" width="38.44" height="38.44" fill="#1D1F21"/><path d="M 384.42 538.1800000000001 A 38.44 38.44 0 0 0 422.86 499.74 L 384.42 499.74" fill="#33b1ff"/><rect x="422.86" y="499.74" width="38.44" height="38.44" fill="#1D1F21"/><path d="M 422.86 499.74 A 38.44 38.44 0 0 0 461.3 538.1800000000001 L 461.3 499.74" fill="#1D1F21"/><rect x="461.2988571428572" y="461.2988571428572" width="76.88314285714286" height="76.88314285714286" fill="#ffffff"/><rect x="461.3" y="461.3" width="38.44" height="38.44" fill="#33b1ff"/><path d="M 461.3 461.3 A 38.44 38.44 0 0 1 499.74 499.74 L 461.3 499.74" fill="#1D1F21"/><rect x="499.74" y="461.3" width="38.44" height="38.44" fill="#1D1F21"/><path d="M 499.74 499.74 A 38.44 38.44 0 0 1  538.1800000000001 461.3 L 538.1800000000001 499.74" fill="#33b1ff"/><rect x="461.3" y="499.74" width="38.44" height="38.44" fill="#1D1F21"/><path d="M 461.3 538.1800000000001 A 38.44 38.44 0 0 0 499.74 499.74 L 461.3 499.74" fill="#1D1F21"/><rect x="499.74" y="499.74" width="38.44" height="38.44" fill="#33b1ff"/><path d="M 499.74 499.74 A 38.44 38.44 0 0 0 538.1800000000001 538.1800000000001 L 538.1800000000001 499.74" fill="#33b1ff"/><rect x="538.182" y="461.2988571428572" width="76.88314285714286" height="76.88314285714286" fill="#ffffff"/><rect x="538.18" y="461.3" width="38.44" height="38.44" fill="#33b1ff"/><polygon points="576.6199999999999,461.3 576.6199999999999,499.74 538.18,499.74" fill="#33b1ff"/><rect x="576.62" y="461.3" width="38.44" height="38.44" fill="#33b1ff"/><polygon points="576.62,461.3 615.06,499.74 576.62,499.74" fill="#33b1ff"/><rect x="538.18" y="499.74" width="38.44" height="38.44" fill="#1D1F21"/><polygon points="538.18,499.74 576.6199999999999,499.74 576.6199999999999,538.1800000000001" fill="#1D1F21"/><rect x="576.62" y="499.74" width="38.44" height="38.44" fill="#33b1ff"/><polygon points="576.62,499.74 615.06,499.74 576.62,538.1800000000001" fill="#1D1F21"/><rect x="615.0651428571429" y="461.2988571428572" width="76.88314285714286" height="76.88314285714286" fill="#ffffff"/><rect x="615.07" y="461.3" width="38.44" height="38.44" fill="#33b1ff"/><polygon points="653.51,461.3 653.51,499.74 615.07,499.74" fill="#33b1ff"/><rect x="653.51" y="461.3" width="38.44" height="38.44" fill="#1D1F21"/><polygon points="653.51,461.3 691.95,461.3 653.51,499.74" fill="#33b1ff"/><rect x="615.07" y="499.74" width="38.44" height="38.44" fill="#33b1ff"/><polygon points="615.07,499.74 653.51,499.74 653.51,538.1800000000001" fill="#33b1ff"/><rect x="653.51" y="499.74" width="38.44" height="38.44" fill="#33b1ff"/><polygon points="653.51,499.74 691.95,538.1800000000001 653.51,538.1800000000001" fill="#1D1F21"/><rect x="691.95" y="461.3" width="76.88" height="76.88" fill="#1D1F21"/><polygon points="691.95,461.3 768.83,461.3 768.83,538.1800000000001" fill="#33b1ff"/></g></svg>